<svg xmlns="http://www.w3.org/2000/svg" xmlns:xlink="http://www.w3.org/1999/xlink" version="1.1" width="96" height="96" viewBox="4.8 -9.6 96.0 129.6">
<path d="M89 11h-84c-1.104 0-2-0.9-2-2s0.896-2 2-2h84c1.1 0 2 0.9 2 2s-0.9 2-2 2z" fill="#000000"/>
	<path d="M89 23h-84c-1.104 0-2-0.9-2-2s0.896-2 2-2h84c1.1 0 2 0.9 2 2s-0.9 2-2 2z" fill="#000000"/>
	<path d="M89 35h-84c-1.104 0-2-0.9-2-2s0.896-2 2-2h84c1.1 0 2 0.9 2 2s-0.9 2-2 2z" fill="#000000"/>
	<path d="M69 79h-64c-1.104 0-2-0.9-2-2s0.896-2 2-2h64c1.1 0 2 0.9 2 2s-0.9 2-2 2z" fill="#000000"/>
	<path d="M84.792 79h-7.792c-1.1 0-2-0.9-2-2s0.9-2 2-2h7.792c2.316 0 4.208-1.892 4.208-4.208v-7.584c0-2.32-1.892-4.216-4.208-4.216h-79.792c-1.104 0-2-0.896-2-2 0-1.096 0.896-2 2-2h79.792c4.524 0 8.208 3.68 8.208 8.216v7.584c0 4.528-3.68 8.208-8.208 8.208z" fill="#000000"/>
	<path d="M89 47h-84c-1.104 0-2-0.9-2-2s0.896-2 2-2h84c1.1 0 2 0.9 2 2s-0.9 2-2 2z" fill="#000000"/>
	<path d="M80.832 89c-0.792 0-1.544-0.476-1.856-1.256l-4-10c-0.188-0.476-0.188-1.008 0-1.484l4-10c0.408-1.024 1.584-1.516 2.6-1.104 1.024 0.416 1.524 1.584 1.112 2.588l-3.704 9.256 3.704 9.256c0.412 1.024-0.088 2.188-1.112 2.588-0.244 0.108-0.492 0.156-0.744 0.156z" fill="#000000"/>
<text x="0.0" y="112.8" font-size="4.8" font-weight="bold" font-family="Helvetica Neue, Helvetica, Arial-Unicode, Arial, Sans-serif" fill="#000000">Created by iconsmind.com</text><text x="0.0" y="117.6" font-size="4.8" font-weight="bold" font-family="Helvetica Neue, Helvetica, Arial-Unicode, Arial, Sans-serif" fill="#000000">from the Noun Project</text></svg>